<?xml version="1.0" encoding="UTF-8" standalone="no"?>
<!-- Created with Inkscape (http://www.inkscape.org/) -->

<svg
   version="1.1"
   id="svg233"
   width="1367"
   height="901"
   viewBox="0 0 1367 901"
   sodipodi:docname="First_model.svg"
   inkscape:version="1.2.1 (9c6d41e410, 2022-07-14)"
   xmlns:inkscape="http://www.inkscape.org/namespaces/inkscape"
   xmlns:sodipodi="http://sodipodi.sourceforge.net/DTD/sodipodi-0.dtd"
   xmlns="http://www.w3.org/2000/svg"
   xmlns:svg="http://www.w3.org/2000/svg">
  <defs
     id="defs237" />
  <sodipodi:namedview
     id="namedview235"
     pagecolor="#ffffff"
     bordercolor="#eeeeee"
     borderopacity="1"
     inkscape:showpageshadow="0"
     inkscape:pageopacity="0"
     inkscape:pagecheckerboard="0"
     inkscape:deskcolor="#505050"
     showgrid="false"
     inkscape:zoom="0.88514996"
     inkscape:cx="662.03471"
     inkscape:cy="449.64132"
     inkscape:window-width="1920"
     inkscape:window-height="1017"
     inkscape:window-x="-8"
     inkscape:window-y="-8"
     inkscape:window-maximized="1"
     inkscape:current-layer="layer2" />
  <g
     inkscape:groupmode="layer"
     inkscape:label="Image"
     id="g239" />
  <g
     inkscape:groupmode="layer"
     id="layer2"
     inkscape:label="Image 1">
    <path
       style="fill:#000000"
       d="m 683.81768,868.87975 c -2.04576,-44.79476 -1.98298,-92.9037 -3.52376,-129.34966 -0.56893,-13.25481 -1.03442,-26.16242 -1.03442,-28.68358 -0.80667,-9.85986 -0.20816,-0.0962 -0.71593,-9.96676 -3.77015,-69.56117 -7.94004,-105.29886 -15.80006,-135.41311 -10.93143,-41.88178 -27.34858,-62.15504 -60.95547,-75.27285 -8.97213,-3.5021 -24.88214,-8.0433 -33.02854,-9.42734 -1.65,-0.28033 -6.375,-1.1802 -10.5,-1.99971 -17.12113,-3.40145 -56.31596,-7.4854 -93.82348,-9.77605 -35.81786,-1.16511 -63.66589,-3.03386 -89.67652,-3.78697 -20.35,-0.58191 -42.5125,-1.30839 -49.25,-1.61439 -23.19496,0.30728 -11.70048,-0.20236 -55.05467,-0.83302 -22.93243,-0.33359 -49.85454,-0.8391 -59.82692,-1.12336 -28.967,0.25951 -18.60695,-0.49482 -45.23504,-0.50468 -11.89835,-8.1e-4 -38.05837,-0.29744 -58.13337,-0.65918 l -36.499996,-0.6577 c -16.481556,0.89671 -5.5319,0.33565 -7.25,0.31674 -9.860571,0.65127 -7.888045,0.0688 -32,0.0334 -18.812131,-0.0204 -29.2499999,-0.38865 -29.2499999,-1.0318 0,-1.26507 42.7216049,-1.26312 143.9999959,0.007 42.075,0.52749 97.78677,1.21523 123.80394,1.52832 26.01716,0.3131 47.84216,0.72665 48.5,0.91902 0.65783,0.19236 21.22106,0.89579 45.69606,1.56316 24.475,0.66738 51.025,1.51976 59,1.89419 18.65431,0.62784 21.45091,0.95228 31.75,1.52709 108.57639,6.2664 153.45675,16.72013 179.99868,41.9261 8.26263,7.84674 13.15693,14.50013 18.48997,25.13556 13.54064,27.00342 21.47062,72.69477 25.90808,149.27835 2.4675,20.85981 2.49143,20.9618 2.25039,42.97163 2.1383,58.24055 2.5588,72.06289 2.57976,84.8 0.006,7.61089 -0.007,7.64746 0.42776,17.29567 0.15072,3.49116 1.59099,74.15433 0.71274,74.15433 -0.45594,0 -1.15757,-14.9625 -1.55918,-33.25 z m 7.44182,-190.25 v -223.5 h -344.5 c -229,0 -344.4999959,-0.33527 -344.4999959,-1 0,-0.66473 115.4999959,-1 344.4999959,-1 h 344.5 v -226 c 0,-150.000004 0.33628,-226.000004 1,-226.000004 0.66372,0 1,76 1,226.000004 v 226 h 338 c 224.6667,0 338,0.33531 338,1 0,0.66469 -113.3333,1 -338,1 h -338 v 223.5 c 0,148.33333 -0.33632,223.5 -1,223.5 -0.66368,0 -1,-75.16667 -1,-223.5 z m 562.5,-229.18248 c -99.8293,-0.91696 -211.2213,-3.09546 -272,-5.31951 C 876.53554,440.27735 817.3877,433.26344 783.96431,420.6727 746.3787,406.51402 727.53279,381.47869 717.31162,332.12975 707.88754,286.62926 702.39111,204.59994 699.78964,70.629746 c -0.29904,-15.4 -0.8124,-37.3375 -1.1408,-48.75 -0.38284,-13.3047047 -0.24509,-20.75 0.38393,-20.75 0.60389,0 1.22501,11.052257 1.61571,28.75 2.92323,132.415264 4.89408,182.230474 9.18854,232.250004 8.35698,97.33751 24.03739,133.79356 65.79846,152.97761 11.20276,5.14628 28.72056,10.54124 40.12402,12.35699 1.65,0.26273 5.025,0.94473 7.5,1.51555 25.49795,5.88077 97.22301,11.45075 181.5,14.09482 48.3377,1.51653 158.6288,3.76561 189.5,3.86434 58.8815,0.1883 175,1.75079 175,2.35481 0,0.74269 -44.8576,0.80227 -115.5,0.1534 z"
       id="path245"
       sodipodi:nodetypes="ccccssssccccccscccscsssccssccccsscscssscssscssscsssssssssssssssssss" />
  </g>
</svg>
